P3
64 36
255

219 234 255
219 234 255
219 234 255
219 234 255
219 235 255
219 234 255
219 234 255
219 234 255
219 234 255
219 234 255
219 234 255
219 234 255
219 234 255
219 234 255
219 234 255
219 234 255
219 234 255
219 234 255
219 234 255
219 234 255
219 234 255
219 234 255
219 234 255
219 234 255
219 234 255
219 234 255
219 234 255
219 234 255
219 234 255
219 234 255
219 234 255
219 234 255
219 234 255
219 234 255
219 234 255
219 234 255
219 234 255
219 234 255
219 234 255
219 234 255
219 234 255
219 234 255
219 234 255
219 234 255
219 234 255
219 234 255
219 234 255
219 234 255
219 234 255
219 234 255
219 234 255
219 234 255
219 234 255
219 234 255
219 234 255
219 234 255
219 234 255
219 234 255
219 234 255
219 234 255
219 234 255
219 234 255
219 235 255
219 234 255
219 235 255
219 235 255
219 235 255
219 235 255
219 235 255
219 235 255
219 235 255
219 235 255
219 235 255
219 235 255
219 235 255
219 235 255
219 235 255
219 235 255
219 235 255
219 235 255
219 235 255
219 235 255
219 235 255
219 235 255
219 235 255
219 235 255
219 235 255
219 235 255
219 235 255
219 235 255
219 235 255
219 235 255
219 235 255
219 235 255
219 235 255
219 235 255
219 235 255
219 235 255
219 235 255
219 235 255
219 235 255
219 235 255
219 235 255
219 235 255
219 235 255
219 235 255
219 235 255
219 235 255
219 235 255
219 235 255
219 235 255
219 235 255
219 235 255
219 235 255
219 235 255
219 235 255
219 235 255
219 235 255
219 235 255
219 235 255
219 235 255
219 235 255
219 235 255
219 235 255
219 235 255
219 235 255
219 235 255
219 235 255
220 235 255
220 235 255
220 235 255
220 235 255
220 235 255
220 235 255
220 235 255
220 235 255
220 235 255
220 235 255
220 235 255
220 235 255
220 235 255
220 235 255
220 235 255
220 235 255
220 235 255
220 235 255
220 235 255
220 235 255
220 235 255
220 235 255
220 235 255
220 235 255
220 235 255
220 235 255
220 235 255
220 235 255
220 235 255
220 235 255
220 235 255
220 235 255
220 235 255
220 235 255
220 235 255
220 235 255
220 235 255
220 235 255
220 235 255
220 235 255
220 235 255
220 235 255
220 235 255
220 235 255
220 235 255
220 235 255
220 235 255
220 235 255
220 235 255
220 235 255
220 235 255
220 235 255
220 235 255
220 235 255
220 235 255
220 235 255
220 235 255
220 235 255
220 235 255
220 235 255
220 235 255
220 235 255
220 235 255
220 235 255
221 235 255
221 235 255
221 235 255
221 235 255
221 235 255
221 235 255
221 235 255
221 235 255
221 235 255
221 235 255
221 235 255
221 235 255
221 235 255
221 235 255
221 235 255
221 235 255
221 235 255
221 235 255
221 235 255
221 235 255
221 235 255
221 235 255
221 235 255
221 235 255
221 235 255
221 235 255
221 235 255
221 235 255
221 235 255
221 235 255
221 235 255
221 235 255
221 235 255
221 235 255
221 235 255
221 235 255
221 235 255
221 235 255
221 235 255
221 235 255
221 235 255
221 235 255
221 235 255
221 235 255
221 235 255
221 235 255
221 235 255
221 235 255
221 235 255
221 235 255
221 235 255
221 235 255
221 235 255
221 235 255
221 235 255
221 235 255
221 235 255
221 235 255
221 235 255
221 235 255
221 235 255
221 235 255
221 235 255
221 235 255
221 235 255
221 235 255
221 235 255
221 235 255
221 235 255
221 235 255
221 235 255
221 235 255
221 235 255
221 235 255
221 235 255
221 235 255
221 235 255
221 235 255
221 235 255
221 235 255
221 235 255
221 235 255
221 235 255
221 235 255
221 235 255
221 235 255
221 235 255
214 227 245
187 191 202
147 139 137
134 119 111
153 145 146
173 176 186
197 213 234
173 191 212
138 185 170
124 190 150
143 200 171
185 222 213
215 230 249
221 235 255
218 232 251
207 219 235
188 197 207
178 184 193
175 182 190
173 179 187
181 189 198
197 206 218
211 223 239
221 235 254
221 235 255
221 235 255
221 235 255
221 235 255
221 235 255
221 235 255
221 235 255
221 235 255
221 235 255
221 235 255
221 235 255
221 235 255
221 235 255
221 235 255
221 235 255
221 235 255
221 235 255
221 235 255
221 235 255
221 235 255
221 235 255
221 235 255
221 235 255
221 235 255
221 235 255
221 235 255
221 235 255
221 235 255
221 235 255
221 235 255
221 235 255
221 235 255
221 235 255
221 235 255
221 235 255
221 235 255
221 235 255
221 235 255
221 235 255
198 206 220
134 117 106
122 97 76
120 95 76
122 98 79
130 129 139
137 157 183
130 150 176
131 153 180
126 147 174
120 139 163
129 150 175
127 150 173
147 164 188
189 197 209
170 175 183
162 170 179
159 168 179
157 167 179
155 167 179
155 167 179
157 167 179
160 169 179
165 171 179
181 187 195
206 217 232
221 235 255
221 235 255
221 235 255
221 235 255
221 235 255
221 235 255
221 235 255
221 235 255
221 235 255
221 235 255
221 235 255
221 235 255
221 235 255
221 235 255
221 235 255
221 235 255
221 236 255
221 236 255
221 236 255
221 236 255
221 236 255
221 236 255
222 236 255
221 236 255
221 236 255
222 236 255
221 236 255
222 236 255
221 236 255
221 236 255
222 236 255
221 236 255
221 236 255
222 236 255
221 236 255
222 236 255
222 236 255
209 219 235
123 101 84
121 95 75
120 95 75
122 97 76
131 136 152
113 130 155
110 128 151
122 143 167
122 143 169
108 125 150
102 118 141
107 122 145
137 150 167
168 173 178
164 171 179
159 169 179
155 167 179
153 166 179
151 165 179
151 164 179
151 164 179
152 165 179
154 166 179
156 167 179
160 170 179
167 173 179
188 193 202
218 231 249
221 236 255
221 236 255
222 236 255
221 236 255
222 236 255
221 236 255
221 236 255
221 236 255
221 236 255
221 236 255
221 236 255
221 236 255
221 236 255
221 236 255
222 236 255
222 236 255
222 236 255
222 236 255
222 236 255
222 236 255
222 236 255
222 236 255
222 236 255
222 236 255
222 236 255
222 236 255
222 236 255
222 236 255
222 236 255
222 236 255
222 236 255
222 236 255
222 236 255
222 236 255
222 236 255
153 145 146
118 93 73
118 93 73
118 93 73
129 128 136
120 141 162
99 116 129
119 138 163
119 138 163
103 119 151
45 45 109
35 15 104
116 123 142
167 171 175
165 171 179
159 169 179
156 167 179
153 166 179
151 165 179
150 164 179
150 164 179
150 164 179
150 164 179
152 165 179
155 167 179
158 168 179
162 170 179
167 173 179
188 193 201
219 232 250
222 236 255
222 236 255
222 236 255
222 236 255
222 236 255
222 236 255
222 236 255
222 236 255
222 236 255
222 236 255
222 236 255
222 236 255
222 236 255
222 236 255
222 236 255
222 236 255
222 236 255
222 236 255
222 236 255
222 236 255
222 236 255
222 236 255
222 236 255
222 236 255
222 236 255
222 236 255
222 236 255
222 236 255
222 236 255
222 236 255
222 236 255
221 235 253
222 236 255
211 222 239
110 87 69
116 91 71
114 89 69
114 90 73
115 118 143
118 138 159
109 132 148
114 134 156
120 139 164
101 116 139
104 109 160
122 124 165
167 168 173
167 173 179
163 170 179
159 168 179
156 167 179
154 166 179
153 166 179
151 165 179
151 165 179
151 165 179
152 165 179
153 166 179
155 167 179
157 168 179
160 169 179
164 171 179
170 174 179
193 198 206
222 236 255
222 236 255
221 235 254
222 236 255
222 236 255
222 236 255
222 236 255
222 236 255
222 236 255
222 236 255
222 236 255
222 236 255
222 236 255
181 197 218
177 193 214
181 197 219
178 193 215
182 197 218
178 195 217
175 191 213
171 187 209
169 185 207
162 179 202
167 183 206
170 186 209
169 185 207
164 181 204
159 176 199
163 181 203
166 183 205
154 172 195
161 178 201
151 170 193
149 158 174
104 81 63
108 84 65
115 89 67
113 97 101
113 124 154
131 151 178
63 136 123
102 121 135
123 143 166
99 118 98
129 140 169
157 159 173
172 175 179
167 173 179
163 170 179
160 169 179
158 168 179
156 167 179
155 167 179
155 167 179
155 167 179
155 167 179
155 167 179
155 167 179
157 168 179
159 169 179
162 170 179
164 171 179
169 173 179
175 176 179
173 184 200
161 178 202
164 181 204
170 187 210
164 181 204
173 188 210
182 198 219
174 190 212
173 189 211
179 195 217
178 194 216
178 194 216
178 194 216
127 148 174
129 150 176
130 151 178
130 150 175
130 150 175
130 148 173
130 151 177
131 152 178
129 150 177
130 151 178
130 151 178
129 150 178
120 142 176
129 150 178
130 151 178
130 150 175
130 150 177
128 150 175
130 151 178
130 151 178
124 135 154
103 79 61
106 83 63
101 79 61
120 122 134
123 139 179
98 115 139
106 145 137
103 116 119
111 128 138
101 119 94
128 146 150
177 177 178
173 175 179
168 173 179
166 172 179
163 170 179
162 170 179
160 169 179
159 169 179
159 168 179
159 168 179
159 168 179
159 168 179
160 169 179
161 170 179
162 170 179
164 171 179
167 172 179
170 173 179
173 175 179
172 173 175
123 138 163
129 150 176
130 150 175
130 150 173
147 158 130
108 129 146
115 138 158
95 130 101
118 142 156
125 146 173
111 120 147
135 153 179
126 127 161
130 150 175
137 142 142
141 141 122
133 122 135
108 89 111
95 117 148
127 145 175
131 151 178
129 150 176
117 133 178
111 142 197
47 81 167
130 124 161
142 138 165
81 118 125
113 136 154
137 158 183
132 151 193
130 149 185
98 79 97
95 73 57
99 78 59
94 75 57
146 157 167
153 164 183
149 161 181
147 167 176
135 143 148
117 147 158
133 156 164
155 156 161
178 178 179
174 176 179
171 175 179
169 173 179
167 173 179
166 172 179
165 172 179
164 171 179
164 171 179
163 171 179
163 171 179
163 171 179
164 171 179
165 172 179
167 172 179
168 173 179
170 174 179
172 175 179
175 176 179
179 178 179
115 102 104
120 130 142
103 99 122
118 114 119
111 116 78
73 35 89
93 101 126
84 102 99
81 95 116
102 69 106
79 59 98
143 157 187
94 57 99
120 131 154
103 90 95
106 95 94
84 93 131
119 140 150
95 104 124
116 47 146
118 90 152
135 130 167
139 104 157
133 167 204
103 160 189
135 107 132
79 63 86
63 63 79
101 139 144
94 128 128
110 139 172
118 132 183
95 98 117
91 81 86
89 69 55
90 71 55
165 173 186
215 230 252
217 232 252
215 230 250
210 225 244
212 227 246
219 234 254
186 187 190
179 178 179
177 178 179
175 176 179
173 175 179
172 175 179
171 175 179
170 174 179
170 173 179
170 173 179
169 173 179
169 173 179
170 173 179
170 174 179
170 174 179
171 175 179
173 175 179
173 175 179
175 176 179
178 178 179
181 179 179
155 156 151
123 127 120
63 53 95
111 118 137
135 142 151
65 45 81
94 71 125
76 59 123
99 59 89
78 0 22
94 79 98
125 132 162
108 120 144
146 156 175
133 141 164
89 101 130
94 39 91
101 90 97
118 131 123
97 57 124
98 78 127
125 127 159
161 147 202
153 147 203
109 113 164
81 113 117
31 106 69
76 98 106
134 125 155
130 109 138
121 113 167
122 127 164
127 148 173
127 118 123
87 61 42
76 61 47
127 130 138
210 227 250
213 230 252
213 228 251
211 227 249
215 231 252
213 229 250
162 160 161
183 181 179
181 179 179
179 178 179
178 178 179
177 178 179
176 177 179
175 177 179
175 176 179
175 176 179
175 176 179
175 176 179
175 176 179
175 176 179
175 177 179
176 177 179
177 178 179
178 178 179
179 178 179
181 179 179
183 181 179
135 143 167
124 133 152
63 65 89
89 94 108
111 103 155
86 53 136
53 53 93
35 42 87
86 97 121
57 78 90
61 101 117
76 121 115
107 126 144
144 150 160
134 138 147
108 118 140
111 79 130
135 117 166
127 97 130
111 106 131
124 144 170
124 143 169
114 107 134
111 81 90
115 61 129
76 83 110
22 109 59
98 129 135
110 143 115
104 151 103
157 140 203
111 95 137
122 140 165
119 133 154
90 79 76
84 83 86
101 106 119
199 218 245
207 226 252
205 223 248
207 225 250
210 227 251
205 222 245
99 104 104
137 136 141
164 164 163
179 177 175
183 181 179
182 180 179
181 180 179
181 180 179
181 180 179
181 179 179
181 179 179
180 179 179
181 179 179
181 180 179
181 180 179
181 180 179
182 180 179
182 180 179
183 181 178
177 175 173
144 146 144
78 111 84
95 127 125
121 140 163
117 126 163
110 47 175
113 35 183
91 78 138
120 147 159
136 167 182
65 104 113
15 83 94
75 86 69
91 148 200
108 121 139
99 109 122
118 132 158
126 153 154
78 159 87
89 110 93
104 103 125
127 149 175
129 150 175
111 114 122
99 78 50
93 73 53
76 133 104
55 175 67
79 162 93
146 170 166
136 155 154
94 108 115
98 98 150
109 123 151
104 117 134
95 107 123
86 93 106
86 108 125
130 155 178
201 223 251
203 223 251
205 225 252
206 226 252
203 222 246
109 107 113
99 106 116
95 103 104
93 89 98
97 113 114
122 123 122
124 123 123
123 128 130
130 134 138
141 143 145
136 135 136
135 137 137
141 143 144
136 136 138
128 129 131
125 129 130
122 119 130
111 109 111
84 87 93
93 93 103
79 98 78
71 95 84
104 130 140
120 140 168
113 149 150
63 148 55
61 151 47
109 137 144
120 147 150
102 142 130
22 107 57
39 102 71
81 93 106
76 128 163
126 148 175
128 130 167
120 129 156
57 140 55
63 127 47
63 95 27
90 104 106
126 146 173
162 189 213
158 186 211
98 95 104
86 86 94
84 139 111
42 143 53
65 128 75
148 155 163
133 143 150
110 123 166
122 126 200
115 95 157
121 132 160
119 137 160
114 130 154
71 95 114
65 91 106
149 172 195
195 218 249
199 222 251
200 222 251
199 221 250
118 127 137
104 104 114
101 102 94
101 111 118
99 109 116
89 89 93
108 102 119
115 107 124
93 102 107
114 110 124
78 89 87
86 87 89
93 109 106
91 78 86
106 93 98
99 87 101
97 103 106
73 73 87
95 91 107
94 95 104
97 117 101
110 124 143
124 144 169
128 152 175
87 150 117
50 94 98
50 79 102
89 116 132
95 116 129
50 94 75
0 91 42
0 81 39
90 109 129
104 138 149
115 97 140
127 35 132
123 35 127
76 76 79
57 71 15
63 78 15
69 81 35
128 137 132
115 132 140
146 114 146
137 0 102
130 47 108
110 131 148
65 113 89
79 108 102
111 138 151
115 138 154
108 113 150
119 57 111
111 53 103
107 67 107
116 131 159
103 114 143
65 76 99
55 73 84
69 97 102
121 149 165
181 207 239
181 206 238
94 121 132
87 106 84
97 102 109
94 99 101
107 114 120
108 115 122
107 115 122
107 114 122
89 99 97
86 99 93
102 106 116
89 90 102
91 94 103
104 111 118
98 98 103
97 101 104
98 107 117
61 90 131
97 102 111
97 97 108
93 97 95
103 113 121
118 129 162
126 149 171
83 167 121
61 182 104
61 175 104
47 86 93
76 97 117
123 144 168
103 125 142
63 83 86
103 110 141
137 143 185
73 102 114
106 79 125
102 27 106
103 27 102
109 94 131
63 75 73
50 63 15
153 139 83
159 143 86
152 141 97
129 42 90
123 0 86
127 0 93
126 126 156
130 151 177
140 170 188
160 207 232
162 207 229
136 159 179
93 45 89
87 42 86
86 59 91
55 39 86
47 27 78
55 42 83
115 132 156
115 134 155
94 113 129
93 115 131
136 160 188
73 120 111
113 153 69
89 108 101
106 111 118
110 117 123
113 118 125
107 114 121
103 110 118
89 97 99
65 76 69
101 107 114
107 114 121
107 114 121
107 115 122
106 113 120
106 113 120
102 110 119
109 116 122
106 114 122
104 111 119
106 113 118
103 108 131
98 93 143
120 145 163
45 135 76
53 150 86
55 159 90
42 76 75
104 122 145
126 148 173
126 147 173
124 135 166
113 120 150
110 117 148
114 134 155
110 121 148
76 47 87
76 47 87
104 114 138
108 123 143
110 117 119
144 131 78
147 129 76
135 120 71
113 93 97
87 0 63
91 50 83
134 137 167
138 135 164
125 126 144
121 155 170
119 153 167
99 125 144
91 98 119
78 75 95
107 115 138
67 50 55
84 69 35
78 63 35
114 127 146
131 150 175
113 161 153
97 163 134
114 145 155
110 131 150
106 145 73
73 119 69
104 113 117
103 110 117
109 115 121
102 109 116
106 111 117
101 108 115
102 108 114
103 110 117
104 111 119
104 110 119
111 110 124
86 116 107
87 115 108
106 113 120
106 111 118
106 113 119
104 111 117
99 106 115
63 63 94
83 87 123
121 145 167
75 121 107
31 109 59
81 137 136
131 155 229
130 155 222
128 150 179
129 150 174
122 131 160
115 115 155
115 115 155
125 144 170
125 144 170
125 143 170
146 152 195
170 174 222
164 170 212
138 150 173
124 120 103
111 101 59
104 101 81
117 129 150
108 122 145
118 127 143
135 131 146
129 122 143
127 119 144
98 110 125
79 104 117
115 136 158
125 145 170
122 143 167
121 140 163
81 67 35
83 67 27
69 61 22
81 86 86
109 146 149
15 189 55
0 177 45
22 151 45
106 146 139
125 181 170
116 165 143
97 121 109
104 110 113
101 104 109
99 103 107
114 104 78
123 111 73
109 106 97
102 107 111
102 104 113
138 113 147
141 114 155
104 107 117
53 97 75
98 106 109
102 107 113
102 108 114
103 109 115
84 90 102
67 78 103
97 109 132
119 138 163
121 143 167
117 137 163
116 132 196
129 149 225
140 163 250
129 149 206
126 146 172
166 178 210
153 146 193
141 141 182
131 152 178
131 151 177
129 145 178
172 172 207
172 181 216
173 181 216
172 173 199
114 125 145
106 119 135
117 133 153
123 143 165
125 143 155
123 132 84
123 132 81
123 130 81
111 108 120
109 119 139
127 149 173
126 147 173
128 149 174
129 150 175
128 150 175
71 63 50
67 55 22
57 50 15
91 103 115
103 159 139
87 149 118
94 163 124
42 155 65
104 173 136
147 218 202
117 165 143
63 97 69
79 91 87
93 97 99
94 95 95
95 79 45
101 84 45
107 93 59
86 87 90
89 89 94
75 55 65
67 45 61
75 71 78
78 84 84
94 99 103
97 99 103
98 103 107
98 106 116
102 117 138
103 120 142
126 146 171
123 143 167
128 149 175
123 143 173
83 99 149
95 111 170
102 116 177
102 120 168
129 149 174
131 150 176
135 154 185
129 150 178
128 150 176
131 151 178
126 145 173
117 118 129
150 153 176
155 166 188
113 119 126
122 140 166
129 150 175
128 150 175
129 150 175
118 131 121
118 126 76
113 120 73
113 119 71
94 101 86
115 131 155
123 141 166
132 152 178
130 150 176
128 148 173
122 140 163
89 101 114
55 55 55
55 55 50
102 116 131
126 145 163
123 144 168
121 141 163
115 144 154
81 135 115
110 163 149
103 150 130
45 61 50
90 106 114
119 118 94
147 143 95
140 134 87
106 97 61
61 55 42
71 69 67
79 76 76
78 73 75
81 71 86
102 90 107
83 83 90
81 116 108
86 119 114
106 117 127
124 143 167
125 144 170
125 145 170
127 148 173
126 145 172
125 144 170
125 145 173
94 110 152
61 75 125
81 97 153
113 131 165
123 144 172
128 150 176
127 150 173
123 143 167
125 146 172
124 144 171
126 146 173
125 150 175
143 199 225
138 196 227
142 195 220
128 153 179
127 146 174
127 147 174
127 147 173
108 122 124
99 108 65
99 107 65
95 102 61
108 122 127
126 147 173
128 146 171
126 146 170
132 154 181
127 146 172
122 142 165
122 143 165
123 143 166
118 138 159
114 138 155
104 130 141
76 118 102
107 130 139
128 146 166
91 118 120
78 124 113
59 95 78
59 86 76
109 122 125
151 147 95
150 145 93
153 147 95
150 143 93
79 76 61
63 59 57
63 59 59
98 86 109
163 143 212
165 150 229
143 153 199
83 166 146
81 164 147
91 162 150
118 134 150
121 138 159
121 137 158
125 143 165
125 144 170
126 146 171
120 140 167
118 135 165
107 124 150
104 120 147
118 137 165
122 143 172
128 149 175
152 173 187
120 143 163
127 148 175
126 146 172
121 139 163
140 185 203
149 203 227
145 201 227
150 202 223
110 140 149
126 145 171
126 146 172
121 139 162
120 138 159
73 83 75
65 71 42
75 84 81
109 126 145
121 141 163
113 143 151
119 154 148
110 120 143
121 137 159
122 134 139
129 148 172
128 148 173
125 145 169
124 145 166
136 172 168
71 146 90
128 169 153
175 193 215
114 136 152
73 110 83
53 98 27
55 94 45
95 103 83
137 132 84
133 129 83
135 130 84
130 122 81
61 57 42
31 27 27
27 27 22
149 126 175
185 162 237
188 165 245
151 160 203
76 153 134
78 155 135
75 151 133
101 141 143
115 128 147
122 137 156
121 137 159
121 138 159
123 140 161
124 143 167
124 143 166
124 143 167
125 143 167
126 146 172
127 146 171
123 143 169
129 151 181
109 139 185
130 150 178
128 149 174
128 150 175
102 140 157
109 145 159
114 152 170
108 147 167
97 131 149
129 150 177
126 147 172
124 145 169
118 137 159
115 132 151
108 124 143
115 132 152
121 140 161
126 146 170
129 149 173
173 193 214
177 188 209
195 213 239
173 191 218
128 149 173
125 145 170
125 146 171
124 141 163
135 150 171
159 181 211
154 176 205
126 143 163
102 127 124
59 111 22
59 108 22
61 111 22
65 108 35
97 99 63
107 103 65
113 108 69
99 95 65
61 61 63
53 55 59
53 55 61
99 89 131
114 102 158
120 108 166
95 109 137
63 130 116
65 133 117
67 134 119
102 127 133
117 130 147
120 135 154
121 138 159
122 139 160
122 140 162
126 145 170
123 142 165
125 143 168
125 144 168
125 144 170
130 149 173
115 130 159
119 141 170
35 116 217
110 113 129
119 131 153
126 147 173
107 138 160
89 128 147
89 128 146
89 128 147
110 137 159
125 147 171
126 148 173
127 148 173
130 151 178
128 150 175
128 149 174
128 149 175
128 149 174
127 147 172
127 146 170
161 180 211
183 205 246
175 203 250
179 203 245
140 153 175
125 145 170
126 147 172
125 144 168
127 146 170
127 147 172
124 144 167
126 146 170
76 111 81
55 99 22
55 103 22
57 106 22
55 102 22
78 91 69
75 78 73
83 84 76
73 75 76
93 99 110
91 97 109
97 102 118
91 87 111
99 86 138
104 90 147
61 73 94
53 110 99
50 107 94
76 115 114
110 126 143
115 131 150
120 136 155
119 136 158
123 141 163
122 141 165
122 141 163
127 146 170
127 146 170
127 148 173
129 149 174
125 143 169
161 174 189
134 152 179
86 126 199
91 63 65
91 63 65
104 98 113
114 137 159
87 110 125
71 95 107
76 101 114
106 129 148
121 144 167
124 147 172
127 149 175
128 150 177
126 148 173
128 149 175
127 148 173
129 150 176
130 150 176
131 151 176
191 207 243
186 208 250
181 205 250
185 207 250
173 187 215
126 144 169
127 148 173
126 145 170
129 150 175
128 148 173
129 150 175
129 149 174
83 109 97
50 89 22
55 95 35
47 90 15
47 86 15
108 127 139
122 139 159
120 137 159
117 132 150
118 132 154
121 134 155
116 126 152
102 99 145
89 79 131
83 81 119
75 84 103
65 87 94
73 93 103
101 121 136
108 127 144
118 138 157
121 142 163
124 143 167
123 143 165
124 143 167
126 144 168
125 145 170
125 145 170
126 145 170
126 147 172
126 144 168
147 143 158
159 142 149
159 148 154
101 65 101
126 76 156
131 79 165
132 97 174
126 127 170
121 145 169
127 150 175
128 150 175
129 150 176
128 149 174
131 152 178
130 151 177
131 151 177
128 150 176
128 149 175
128 150 175
132 153 178
137 156 182
150 160 188
178 192 225
171 187 218
162 173 207
145 159 192
114 133 153
128 148 173
129 150 175
127 148 173
128 149 174
125 145 170
123 143 165
143 144 179
159 155 201
170 166 222
148 146 183
89 106 108
121 140 163
120 139 160
127 146 170
127 147 171
124 142 166
122 138 165
104 91 155
101 86 155
102 87 156
101 86 154
113 118 155
121 118 140
117 107 125
119 114 133
122 140 163
126 146 170
125 146 170
125 146 170
125 145 169
123 143 169
126 147 173
128 149 175
127 148 174
127 148 174
123 143 171
123 115 141
128 57 91
127 55 93
127 55 93
132 78 164
136 81 173
137 81 174
136 81 171
131 79 166
130 132 173
130 150 176
129 150 178
130 150 176
129 150 177
130 150 177
130 150 176
129 150 176
129 150 175
129 150 175
132 153 179
134 155 181
128 150 176
131 152 179
128 149 175
130 150 178
118 133 165
122 140 173
127 148 174
129 150 176
128 148 173
128 149 174
127 148 173
126 147 173
144 149 184
188 178 236
178 175 239
175 173 239
182 176 239
159 151 196
101 118 134
115 134 155
122 143 167
126 147 171
126 147 172
111 110 158
97 81 143
97 81 146
101 84 150
95 76 129
115 89 108
118 91 107
117 90 107
117 91 107
118 98 115
126 143 167
129 150 175
127 148 173
128 148 173
128 149 173
128 150 175
128 150 175
125 146 172
126 147 173
125 142 168
121 59 90
121 53 86
126 55 89
126 55 90
133 76 163
135 78 166
129 75 160
131 76 162
124 75 155
126 99 160
128 148 173
129 150 176
130 151 178
129 150 176
129 150 176
129 150 177
128 149 175
126 146 172
128 150 175
125 146 170
125 145 170
127 147 173
131 151 176
130 151 178
128 147 172
102 114 142
115 130 155
126 146 173
127 148 174
129 150 175
126 146 172
128 149 173
126 146 172
155 148 193
183 170 225
186 177 234
185 177 233
185 176 230
166 153 204
122 137 163
125 146 170
127 148 173
125 145 170
129 150 175
99 94 142
86 71 127
89 76 132
89 73 129
86 65 98
113 87 99
110 86 99
115 89 103
113 87 99
113 86 101
119 121 141
129 150 175
129 150 175
128 150 175
129 150 177
129 149 174
128 149 174
128 149 175
128 149 174
124 132 156
115 47 78
120 50 83
120 50 83
118 50 83
137 47 163
124 61 149
118 63 143
117 67 144
119 69 147
111 90 143
125 145 171
126 146 172
129 150 176
128 150 175
129 150 177
129 150 175
129 150 176
129 150 176
131 152 178
126 143 169
95 107 129
122 140 165
121 141 167
130 151 177
126 144 170
90 113 120
84 117 108
94 129 122
111 139 150
127 148 173
127 147 173
128 150 176
127 147 173
129 127 170
129 116 160
132 128 165
139 135 173
130 129 163
119 113 153
120 137 163
127 148 174
127 149 173
118 145 160
111 144 151
90 113 128
75 63 113
75 63 111
75 61 109
90 67 90
102 76 89
99 78 87
104 81 91
107 83 95
103 78 91
115 116 135
129 150 175
129 149 173
128 148 174
129 149 175
129 150 175
129 150 176
126 145 170
125 145 171
123 139 163
93 55 76
101 42 71
99 42 69
106 45 73
159 0 186
145 35 169
101 55 126
102 57 127
101 61 128
122 130 164
124 143 169
127 149 175
128 150 175
127 147 175
128 149 175
129 150 176
129 150 177
130 151 178
141 161 185
117 131 147
118 133 165
120 137 166
129 145 162
150 170 191
120 150 148
67 119 75
65 120 75
65 120 75
69 121 78
98 132 127
126 147 173
129 150 176
128 149 175
123 135 166
122 118 163
120 116 159
120 118 161
117 114 157
114 113 151
126 146 172
124 145 171
89 140 121
22 136 35
15 135 22
15 135 22
31 123 53
53 73 84
61 50 95
63 47 73
81 63 73
81 63 73
91 71 81
93 71 81
94 71 83
114 118 139
127 147 172
130 151 178
129 150 175
128 150 176
125 144 169
125 143 168
126 147 173
124 143 167
117 129 149
106 108 126
89 45 69
87 35 61
84 35 59
155 0 180
152 0 173
114 35 135
89 59 114
89 87 120
107 117 143
123 141 167
123 142 168
128 149 175
130 150 177
128 149 175
128 149 175
127 148 174
129 150 175
129 150 176
149 167 190
175 196 228
183 203 238
201 219 244
178 201 218
65 116 71
67 119 73
65 117 73
65 116 71
65 116 71
65 117 75
114 140 155
127 146 173
124 141 168
120 135 163
107 108 141
101 93 130
101 91 129
99 95 131
111 123 151
123 139 167
98 139 134
15 132 27
15 136 22
15 136 22
15 136 22
15 136 22
22 121 39
50 57 67
53 57 71
63 59 71
73 57 67
76 59 71
84 65 76
95 95 113
119 138 162
124 143 167
125 145 172
126 146 172
127 147 173
127 148 174
125 143 168
124 143 167
120 136 161
110 124 146
98 102 121
73 71 84
55 35 50
63 53 65
149 0 170
144 0 164
99 39 116
63 61 84
93 98 123
107 118 145
119 134 162
123 141 168
124 142 169
126 143 170
128 149 175
129 149 175
130 150 175
129 149 175
128 148 173
130 150 174
143 163 191
159 182 212
160 183 213
111 142 144
61 111 69
59 109 67
63 113 67
63 115 71
63 114 67
59 108 65
97 124 128
127 144 173
127 143 171
118 129 157
97 102 127
89 90 115
84 84 108
95 103 125
113 124 150
120 135 162
71 128 97
0 124 22
15 129 22
0 126 22
15 129 22
15 127 22
0 121 22
73 106 97
81 91 109
65 71 84
59 63 73
47 47 55
61 63 75
93 103 120
104 116 136
117 134 157
125 143 168
126 145 171
128 149 174
127 147 173
127 148 173
126 145 171
124 142 167
120 136 161
113 127 151
111 123 146
103 113 133
104 117 138
132 0 153
127 0 146
125 104 159
115 129 155
122 140 166
125 143 170
121 138 166
129 150 177
125 144 170
129 150 176
126 147 173
129 149 175
130 150 177
128 150 175
130 150 175
130 149 175
128 148 173
128 149 174
127 147 172
107 131 142
57 99 61
57 101 63
59 106 63
57 103 61
57 102 61
55 99 59
104 128 139
127 148 175
127 148 175
127 144 173
121 137 163
123 140 167
122 138 164
123 141 167
125 143 169
121 139 165
61 121 84
0 117 15
0 118 15
0 116 15
0 124 22
0 120 22
15 117 27
91 132 124
115 131 155
114 130 154
107 121 143
116 132 155
110 126 148
110 125 148
116 131 155
122 141 166
126 147 173
126 147 173
128 149 175
129 149 175
129 150 175
129 150 176
129 150 175
123 149 167
107 155 148
84 152 121
97 152 135
114 149 155
